<?xml version="1.0" encoding="UTF-8"?><svg xmlns="http://www.w3.org/2000/svg" xmlns:xlink="http://www.w3.org/1999/xlink" fill-opacity="1" color-rendering="auto" color-interpolation="auto" text-rendering="auto" stroke="black" stroke-linecap="square" width="473" stroke-miterlimit="10" shape-rendering="auto" stroke-opacity="1" fill="black" stroke-dasharray="none" font-weight="normal" stroke-width="1" height="345" font-family="'Dialog'" font-style="normal" stroke-linejoin="miter" font-size="12px" stroke-dashoffset="0" image-rendering="auto">
  <!--Generated by ySVG 2.6-->
  <defs id="genericDefs"/>
  <g>
    <defs id="defs1">
      <clipPath clipPathUnits="userSpaceOnUse" id="clipPath1">
        <path d="M0 0 L473 0 L473 345 L0 345 L0 0 Z"/>
      </clipPath>
      <clipPath clipPathUnits="userSpaceOnUse" id="clipPath2">
        <path d="M204 307 L677 307 L677 652 L204 652 L204 307 Z"/>
      </clipPath>
    </defs>
    <g fill="white" text-rendering="geometricPrecision" shape-rendering="geometricPrecision" transform="translate(-204,-307)" stroke="white">
      <rect x="204" width="473" height="345" y="307" clip-path="url(#clipPath2)" stroke="none"/>
    </g>
    <g fill="rgb(255,204,0)" text-rendering="geometricPrecision" shape-rendering="geometricPrecision" transform="matrix(1,0,0,1,-204,-307)" stroke="rgb(255,204,0)">
      <ellipse rx="40" ry="26" clip-path="url(#clipPath2)" cx="482" cy="348" stroke="none"/>
    </g>
    <g text-rendering="geometricPrecision" stroke-miterlimit="1.45" shape-rendering="geometricPrecision" transform="matrix(1,0,0,1,-204,-307)" stroke-linecap="butt">
      <ellipse rx="40" fill="none" ry="26" clip-path="url(#clipPath2)" cx="482" cy="348"/>
      <text x="447.5498" xml:space="preserve" y="345.4688" clip-path="url(#clipPath2)" font-family="sans-serif" stroke="none">Background</text>
      <text x="460.0068" xml:space="preserve" y="359.6016" clip-path="url(#clipPath2)" font-family="sans-serif" stroke="none">context</text>
    </g>
    <g fill="rgb(255,204,0)" text-rendering="geometricPrecision" shape-rendering="geometricPrecision" transform="matrix(1,0,0,1,-204,-307)" stroke="rgb(255,204,0)">
      <ellipse rx="40" ry="26" clip-path="url(#clipPath2)" cx="342" cy="469" stroke="none"/>
    </g>
    <g text-rendering="geometricPrecision" stroke-miterlimit="1.45" shape-rendering="geometricPrecision" transform="matrix(1,0,0,1,-204,-307)" stroke-linecap="butt">
      <ellipse rx="40" fill="none" ry="26" clip-path="url(#clipPath2)" cx="342" cy="469"/>
      <text x="313.1279" xml:space="preserve" y="473.5352" clip-path="url(#clipPath2)" font-family="sans-serif" stroke="none">WithValue</text>
    </g>
    <g fill="rgb(255,204,0)" text-rendering="geometricPrecision" shape-rendering="geometricPrecision" transform="matrix(1,0,0,1,-204,-307)" stroke="rgb(255,204,0)">
      <ellipse rx="40" ry="26" clip-path="url(#clipPath2)" cx="482" cy="469" stroke="none"/>
    </g>
    <g text-rendering="geometricPrecision" stroke-miterlimit="1.45" shape-rendering="geometricPrecision" transform="matrix(1,0,0,1,-204,-307)" stroke-linecap="butt">
      <ellipse rx="40" fill="none" ry="26" clip-path="url(#clipPath2)" cx="482" cy="469"/>
      <text x="453.1279" xml:space="preserve" y="473.5352" clip-path="url(#clipPath2)" font-family="sans-serif" stroke="none">WithValue</text>
    </g>
    <g fill="rgb(255,204,0)" text-rendering="geometricPrecision" shape-rendering="geometricPrecision" transform="matrix(1,0,0,1,-204,-307)" stroke="rgb(255,204,0)">
      <ellipse rx="40" ry="26" clip-path="url(#clipPath2)" cx="622" cy="469" stroke="none"/>
    </g>
    <g text-rendering="geometricPrecision" stroke-miterlimit="1.45" shape-rendering="geometricPrecision" transform="matrix(1,0,0,1,-204,-307)" stroke-linecap="butt">
      <ellipse rx="40" fill="none" ry="26" clip-path="url(#clipPath2)" cx="622" cy="469"/>
      <text x="590.3359" xml:space="preserve" y="473.5352" clip-path="url(#clipPath2)" font-family="sans-serif" stroke="none">withCancel</text>
    </g>
    <g fill="rgb(255,204,0)" text-rendering="geometricPrecision" shape-rendering="geometricPrecision" transform="matrix(1,0,0,1,-204,-307)" stroke="rgb(255,204,0)">
      <ellipse rx="40" ry="26" clip-path="url(#clipPath2)" cx="259" cy="611" stroke="none"/>
    </g>
    <g text-rendering="geometricPrecision" stroke-miterlimit="1.45" shape-rendering="geometricPrecision" transform="matrix(1,0,0,1,-204,-307)" stroke-linecap="butt">
      <ellipse rx="40" fill="none" ry="26" clip-path="url(#clipPath2)" cx="259" cy="611"/>
      <text x="230.1279" xml:space="preserve" y="615.5352" clip-path="url(#clipPath2)" font-family="sans-serif" stroke="none">WithValue</text>
    </g>
    <g fill="rgb(255,204,0)" text-rendering="geometricPrecision" shape-rendering="geometricPrecision" transform="matrix(1,0,0,1,-204,-307)" stroke="rgb(255,204,0)">
      <ellipse rx="40" ry="26" clip-path="url(#clipPath2)" cx="408" cy="611" stroke="none"/>
    </g>
    <g text-rendering="geometricPrecision" stroke-miterlimit="1.45" shape-rendering="geometricPrecision" transform="matrix(1,0,0,1,-204,-307)" stroke-linecap="butt">
      <ellipse rx="40" fill="none" ry="26" clip-path="url(#clipPath2)" cx="408" cy="611"/>
      <text x="379.1279" xml:space="preserve" y="615.5352" clip-path="url(#clipPath2)" font-family="sans-serif" stroke="none">WithValue</text>
      <path fill="none" d="M457.9578 368.7794 L372.0949 442.9894" clip-path="url(#clipPath2)"/>
      <path d="M366.0422 448.2206 L378.3907 444.1567 L372.8515 442.3355 L371.8517 436.5909 Z" clip-path="url(#clipPath2)" stroke="none"/>
      <path fill="none" d="M482 374 L482 435" clip-path="url(#clipPath2)"/>
      <path d="M482 443 L487 431 L482 434 L477 431 Z" clip-path="url(#clipPath2)" stroke="none"/>
      <path fill="none" d="M506.0422 368.7794 L591.9051 442.9894" clip-path="url(#clipPath2)"/>
      <path d="M597.9578 448.2206 L592.1483 436.5909 L591.1485 442.3355 L585.6093 444.1567 Z" clip-path="url(#clipPath2)" stroke="none"/>
      <path fill="none" d="M327.7936 493.3049 L277.2434 579.7883" clip-path="url(#clipPath2)"/>
      <path d="M273.2065 586.6951 L283.5786 578.8582 L277.7481 578.925 L274.9453 573.8119 Z" clip-path="url(#clipPath2)" stroke="none"/>
      <path fill="none" d="M353.5681 493.889 L393.06 578.8564" clip-path="url(#clipPath2)"/>
      <path d="M396.4319 586.1111 L395.9082 573.1216 L392.6385 577.9496 L386.8399 577.3365 Z" clip-path="url(#clipPath2)" stroke="none"/>
    </g>
  </g>
</svg>
