<?xml version="1.0" encoding="UTF-8"?><svg xmlns="http://www.w3.org/2000/svg" xmlns:xlink="http://www.w3.org/1999/xlink" fill-opacity="1" color-rendering="auto" color-interpolation="auto" text-rendering="auto" stroke="black" stroke-linecap="square" width="511" stroke-miterlimit="10" shape-rendering="auto" stroke-opacity="1" fill="black" stroke-dasharray="none" font-weight="normal" stroke-width="1" height="161" font-family="'Dialog'" font-style="normal" stroke-linejoin="miter" font-size="12px" stroke-dashoffset="0" image-rendering="auto">
  <!--Generated by ySVG 2.6-->
  <defs id="genericDefs"/>
  <g>
    <defs id="defs1">
      <clipPath clipPathUnits="userSpaceOnUse" id="clipPath1">
        <path d="M0 0 L511 0 L511 161 L0 161 L0 0 Z"/>
      </clipPath>
      <clipPath clipPathUnits="userSpaceOnUse" id="clipPath2">
        <path d="M36 313 L547 313 L547 474 L36 474 L36 313 Z"/>
      </clipPath>
    </defs>
    <g fill="white" text-rendering="geometricPrecision" shape-rendering="geometricPrecision" transform="translate(-36,-313)" stroke="white">
      <rect x="36" width="511" height="161" y="313" clip-path="url(#clipPath2)" stroke="none"/>
    </g>
    <g fill="rgb(255,204,0)" text-rendering="geometricPrecision" shape-rendering="geometricPrecision" transform="matrix(1,0,0,1,-36,-313)" stroke="rgb(255,204,0)">
      <rect x="175" width="30" height="30" y="328" clip-path="url(#clipPath2)" stroke="none"/>
    </g>
    <g text-rendering="geometricPrecision" stroke-miterlimit="1.45" shape-rendering="geometricPrecision" transform="matrix(1,0,0,1,-36,-313)" stroke-linecap="butt">
      <rect fill="none" x="175" width="30" height="30" y="328" clip-path="url(#clipPath2)"/>
      <text x="181.0381" xml:space="preserve" y="347.5352" clip-path="url(#clipPath2)" font-family="sans-serif" stroke="none">M1</text>
    </g>
    <g fill="rgb(255,204,0)" text-rendering="geometricPrecision" shape-rendering="geometricPrecision" transform="matrix(1,0,0,1,-36,-313)" stroke="rgb(255,204,0)">
      <ellipse rx="35.5" ry="15" clip-path="url(#clipPath2)" cx="86.5" cy="343" stroke="none"/>
    </g>
    <g text-rendering="geometricPrecision" stroke-miterlimit="1.45" shape-rendering="geometricPrecision" transform="matrix(1,0,0,1,-36,-313)" stroke-linecap="butt">
      <ellipse rx="35.5" fill="none" ry="15" clip-path="url(#clipPath2)" cx="86.5" cy="343"/>
      <text x="63.2178" xml:space="preserve" y="347.5352" clip-path="url(#clipPath2)" font-family="sans-serif" stroke="none">Request</text>
    </g>
    <g fill="rgb(255,204,0)" text-rendering="geometricPrecision" shape-rendering="geometricPrecision" transform="matrix(1,0,0,1,-36,-313)" stroke="rgb(255,204,0)">
      <rect x="258" width="30" height="30" y="328" clip-path="url(#clipPath2)" stroke="none"/>
    </g>
    <g text-rendering="geometricPrecision" stroke-miterlimit="1.45" shape-rendering="geometricPrecision" transform="matrix(1,0,0,1,-36,-313)" stroke-linecap="butt">
      <rect fill="none" x="258" width="30" height="30" y="328" clip-path="url(#clipPath2)"/>
      <text x="264.0381" xml:space="preserve" y="347.5352" clip-path="url(#clipPath2)" font-family="sans-serif" stroke="none">M2</text>
    </g>
    <g fill="rgb(255,204,0)" text-rendering="geometricPrecision" shape-rendering="geometricPrecision" transform="matrix(1,0,0,1,-36,-313)" stroke="rgb(255,204,0)">
      <rect x="341" width="30" height="30" y="328" clip-path="url(#clipPath2)" stroke="none"/>
    </g>
    <g text-rendering="geometricPrecision" stroke-miterlimit="1.45" shape-rendering="geometricPrecision" transform="matrix(1,0,0,1,-36,-313)" stroke-linecap="butt">
      <rect fill="none" x="341" width="30" height="30" y="328" clip-path="url(#clipPath2)"/>
      <text x="347.0381" xml:space="preserve" y="347.5352" clip-path="url(#clipPath2)" font-family="sans-serif" stroke="none">M3</text>
    </g>
    <g fill="rgb(255,204,0)" text-rendering="geometricPrecision" shape-rendering="geometricPrecision" transform="matrix(1,0,0,1,-36,-313)" stroke="rgb(255,204,0)">
      <rect x="424" width="108" height="30" y="328" clip-path="url(#clipPath2)" stroke="none"/>
    </g>
    <g text-rendering="geometricPrecision" stroke-miterlimit="1.45" shape-rendering="geometricPrecision" transform="matrix(1,0,0,1,-36,-313)" stroke-linecap="butt">
      <rect fill="none" x="424" width="108" height="30" y="328" clip-path="url(#clipPath2)"/>
      <text x="435.5166" xml:space="preserve" y="347.5352" clip-path="url(#clipPath2)" font-family="sans-serif" stroke="none">Business Logic</text>
      <text x="195.7881" xml:space="preserve" y="448.5352" clip-path="url(#clipPath2)" font-family="sans-serif" stroke="none">Stop the middleware chain</text>
      <path fill="none" d="M122 343 L167 343" clip-path="url(#clipPath2)"/>
      <path d="M175 343 L163 338 L166 343 L163 348 Z" clip-path="url(#clipPath2)" stroke="none"/>
      <path fill="none" d="M205 343 L250 343" clip-path="url(#clipPath2)"/>
      <path d="M258 343 L246 338 L249 343 L246 348 Z" clip-path="url(#clipPath2)" stroke="none"/>
      <path fill="none" d="M288 343 L333 343" clip-path="url(#clipPath2)"/>
      <path d="M341 343 L329 338 L332 343 L329 348 Z" clip-path="url(#clipPath2)" stroke="none"/>
      <path fill="none" d="M371 343 L416 343" clip-path="url(#clipPath2)"/>
      <path d="M424 343 L412 338 L415 343 L412 348 Z" clip-path="url(#clipPath2)" stroke="none"/>
      <path fill="none" d="M202.3267 358 L255.594 422.8193" clip-path="url(#clipPath2)"/>
      <path d="M260.6733 429 L256.9174 416.5544 L254.9591 422.0467 L249.1915 422.9034 Z" clip-path="url(#clipPath2)" stroke="none"/>
    </g>
  </g>
</svg>
